<svg width="39" height="39" viewBox="0 0 39 39" fill="none" xmlns="http://www.w3.org/2000/svg">
<circle cx="19.5" cy="19.5" r="18.5" stroke="#505659" stroke-width="2" stroke-dasharray="4 4"/>
<path d="M14.194 19.62H18.214V20.094C18.214 20.658 18.118 21.186 17.926 21.678C17.738 22.166 17.468 22.596 17.116 22.968C16.764 23.336 16.346 23.624 15.862 23.832C15.382 24.04 14.852 24.144 14.272 24.144C13.676 24.144 13.132 24.038 12.64 23.826C12.148 23.614 11.724 23.32 11.368 22.944C11.012 22.568 10.736 22.132 10.54 21.636C10.348 21.136 10.252 20.602 10.252 20.034C10.252 19.47 10.348 18.94 10.54 18.444C10.736 17.944 11.012 17.508 11.368 17.136C11.724 16.76 12.148 16.466 12.64 16.254C13.132 16.042 13.676 15.936 14.272 15.936C14.732 15.936 15.142 15.986 15.502 16.086C15.862 16.186 16.176 16.322 16.444 16.494C16.716 16.662 16.95 16.85 17.146 17.058C17.346 17.262 17.512 17.468 17.644 17.676L16.24 18.36C16.048 18.08 15.792 17.84 15.472 17.64C15.156 17.44 14.756 17.34 14.272 17.34C13.912 17.34 13.58 17.412 13.276 17.556C12.976 17.696 12.716 17.89 12.496 18.138C12.28 18.386 12.112 18.674 11.992 19.002C11.872 19.326 11.812 19.67 11.812 20.034C11.812 20.402 11.872 20.748 11.992 21.072C12.112 21.396 12.28 21.684 12.496 21.936C12.716 22.184 12.976 22.378 13.276 22.518C13.58 22.658 13.912 22.728 14.272 22.728C14.6 22.728 14.898 22.68 15.166 22.584C15.434 22.488 15.666 22.352 15.862 22.176C16.062 22 16.22 21.794 16.336 21.558C16.452 21.318 16.518 21.06 16.534 20.784H14.194V19.62ZM19.3782 16.08H20.8782V24H19.3782V16.08ZM22.4122 16.08H26.8162V17.406H23.9122V19.368H26.6062V20.688H23.9122V24H22.4122V16.08Z" fill="#505659"/>
</svg>
