<svg width="31" height="37" viewBox="0 0 31 37" fill="none" xmlns="http://www.w3.org/2000/svg">
<mask id="path-1-inside-1_801_84" fill="white">
<path fill-rule="evenodd" clip-rule="evenodd" d="M23.4908 18.615C23.605 18.7292 23.6691 18.884 23.6691 19.0454C23.6691 19.2069 23.605 19.3617 23.4908 19.4759L20.0467 22.9199C19.9906 22.9781 19.9234 23.0245 19.8491 23.0564C19.7748 23.0883 19.6949 23.1051 19.6141 23.1058C19.5333 23.1065 19.4531 23.0911 19.3783 23.0605C19.3035 23.0299 19.2355 22.9847 19.1783 22.9275C19.1212 22.8703 19.0759 22.8024 19.0453 22.7275C19.0147 22.6527 18.9993 22.5725 19 22.4917C19.0007 22.4109 19.0175 22.331 19.0494 22.2567C19.0813 22.1824 19.1277 22.1152 19.1859 22.0591L22.1995 19.0454L19.1859 16.0318C19.075 15.9169 19.0136 15.7632 19.015 15.6035C19.0164 15.4439 19.0804 15.2912 19.1933 15.1783C19.3062 15.0654 19.4589 15.0014 19.6185 15C19.7781 14.9986 19.9319 15.06 20.0467 15.1709L23.4908 18.615Z"/>
</mask>
<path d="M23.4908 18.615L24.9052 17.201L24.905 17.2008L23.4908 18.615ZM23.4908 19.4759L24.905 20.8901L24.9052 20.8899L23.4908 19.4759ZM20.0467 22.9199L18.6325 21.5057L18.6202 21.518L18.6082 21.5305L20.0467 22.9199ZM19.1859 22.0591L20.5753 23.4977L20.5878 23.4856L20.6001 23.4733L19.1859 22.0591ZM22.1995 19.0454L23.6137 20.4596L25.0279 19.0454L23.6137 17.6312L22.1995 19.0454ZM19.1859 16.0318L17.7473 17.4212L17.7594 17.4337L17.7717 17.446L19.1859 16.0318ZM20.0467 15.1709L21.4609 13.7567L21.4487 13.7444L21.4362 13.7323L20.0467 15.1709ZM22.0764 20.029C21.8156 19.7681 21.6691 19.4143 21.6691 19.0454H25.6691C25.6691 18.3537 25.3943 17.6902 24.9052 17.201L22.0764 20.029ZM21.6691 19.0454C21.6691 18.6765 21.8156 18.3227 22.0764 18.0619L24.9052 20.8899C25.3943 20.4006 25.6691 19.7372 25.6691 19.0454H21.6691ZM22.0766 18.0616L18.6325 21.5057L21.4609 24.3342L24.905 20.8901L22.0766 18.0616ZM18.6082 21.5305C18.7365 21.3977 18.89 21.2917 19.0597 21.2188L20.6385 24.894C20.9568 24.7573 21.2447 24.5585 21.4853 24.3094L18.6082 21.5305ZM19.0597 21.2188C19.2295 21.1458 19.412 21.1075 19.5967 21.1059L19.6315 25.1057C19.9779 25.1027 20.3202 25.0307 20.6385 24.894L19.0597 21.2188ZM19.5967 21.1059C19.7814 21.1043 19.9646 21.1395 20.1356 21.2094L18.6209 24.9115C18.9416 25.0427 19.2851 25.1087 19.6315 25.1057L19.5967 21.1059ZM20.1356 21.2094C20.3066 21.2794 20.4619 21.3827 20.5925 21.5133L17.7641 24.3417C18.0091 24.5867 18.3003 24.7804 18.6209 24.9115L20.1356 21.2094ZM20.5925 21.5133C20.7231 21.6439 20.8265 21.7992 20.8964 21.9702L17.1943 23.4849C17.3254 23.8055 17.5192 24.0968 17.7641 24.3417L20.5925 21.5133ZM20.8964 21.9702C20.9664 22.1412 21.0016 22.3244 20.9999 22.5091L17.0001 22.4743C16.9971 22.8207 17.0631 23.1642 17.1943 23.4849L20.8964 21.9702ZM20.9999 22.5091C20.9983 22.6938 20.96 22.8763 20.8871 23.0461L17.2118 21.4673C17.0751 21.7856 17.0031 22.1279 17.0001 22.4743L20.9999 22.5091ZM20.8871 23.0461C20.8141 23.2158 20.7082 23.3693 20.5753 23.4977L17.7964 20.6205C17.5473 20.8612 17.3485 21.149 17.2118 21.4673L20.8871 23.0461ZM20.6001 23.4733L23.6137 20.4596L20.7853 17.6312L17.7717 20.6449L20.6001 23.4733ZM23.6137 17.6312L20.6001 14.6176L17.7717 17.446L20.7853 20.4596L23.6137 17.6312ZM20.6244 14.6423C20.8779 14.9047 21.0181 15.2561 21.0149 15.6209L17.0151 15.5861C17.0091 16.2702 17.2721 16.9292 17.7473 17.4212L20.6244 14.6423ZM21.0149 15.6209C21.0117 15.9857 20.8654 16.3346 20.6075 16.5925L17.7791 13.7641C17.2954 14.2478 17.021 14.9021 17.0151 15.5861L21.0149 15.6209ZM20.6075 16.5925C20.3496 16.8505 20.0006 16.9968 19.6359 16.9999L19.6011 13.0001C18.9171 13.006 18.2628 13.2804 17.7791 13.7641L20.6075 16.5925ZM19.6359 16.9999C19.2711 17.0031 18.9197 16.8629 18.6573 16.6095L21.4362 13.7323C20.9441 13.2571 20.2851 12.9942 19.6011 13.0001L19.6359 16.9999ZM18.6325 16.5851L22.0766 20.0292L24.905 17.2008L21.4609 13.7567L18.6325 16.5851Z" fill="#505659" mask="url(#path-1-inside-1_801_84)"/>
<mask id="path-3-inside-2_801_84" fill="white">
<path fill-rule="evenodd" clip-rule="evenodd" d="M7.17812 19.491C7.06399 19.3768 6.99987 19.222 6.99987 19.0605C6.99987 18.8991 7.06399 18.7443 7.17812 18.6301L10.6222 15.186C10.6784 15.1279 10.7456 15.0815 10.8198 15.0496C10.8941 15.0177 10.974 15.0009 11.0548 15.0002C11.1357 14.9995 11.2158 15.0149 11.2907 15.0455C11.3655 15.0761 11.4335 15.1213 11.4906 15.1785C11.5478 15.2356 11.593 15.3036 11.6236 15.3784C11.6542 15.4532 11.6696 15.5334 11.6689 15.6143C11.6682 15.6951 11.6514 15.775 11.6195 15.8493C11.5876 15.9235 11.5412 15.9907 11.4831 16.0469L8.46943 19.0605L11.4831 22.0742C11.594 22.189 11.6553 22.3428 11.654 22.5024C11.6526 22.6621 11.5885 22.8148 11.4757 22.9276C11.3628 23.0405 11.2101 23.1045 11.0505 23.1059C10.8908 23.1073 10.737 23.046 10.6222 22.9351L7.17812 19.491Z"/>
</mask>
<path d="M7.17812 19.491L5.7637 20.905L5.76391 20.9052L7.17812 19.491ZM7.17812 18.6301L5.76391 17.2159L5.7637 17.2161L7.17812 18.6301ZM10.6222 15.186L12.0364 16.6002L12.0487 16.5879L12.0608 16.5754L10.6222 15.186ZM11.4831 16.0469L10.0937 14.6083L10.0812 14.6204L10.0689 14.6327L11.4831 16.0469ZM8.46943 19.0605L7.05521 17.6463L5.641 19.0605L7.05521 20.4747L8.46943 19.0605ZM11.4831 22.0742L12.9217 20.6848L12.9096 20.6723L12.8973 20.66L11.4831 22.0742ZM10.6222 22.9351L9.208 24.3493L9.22029 24.3616L9.23279 24.3736L10.6222 22.9351ZM8.59255 18.077C8.85336 18.3379 8.99987 18.6916 8.99987 19.0605H4.99987C4.99987 19.7523 5.27462 20.4157 5.7637 20.905L8.59255 18.077ZM8.99987 19.0605C8.99987 19.4294 8.85336 19.7832 8.59255 20.0441L5.7637 17.2161C5.27462 17.7053 4.99987 18.3688 4.99987 19.0605H8.99987ZM8.59234 20.0443L12.0364 16.6002L9.208 13.7718L5.76391 17.2159L8.59234 20.0443ZM12.0608 16.5754C11.9325 16.7083 11.7789 16.8143 11.6092 16.8872L10.0304 13.2119C9.71215 13.3487 9.42429 13.5474 9.18363 13.7966L12.0608 16.5754ZM11.6092 16.8872C11.4395 16.9601 11.2569 16.9985 11.0722 17.0001L11.0375 13.0002C10.6911 13.0033 10.3487 13.0752 10.0304 13.2119L11.6092 16.8872ZM11.0722 17.0001C10.8875 17.0017 10.7043 16.9665 10.5333 16.8966L12.048 13.1944C11.7274 13.0632 11.3838 12.9972 11.0375 13.0002L11.0722 17.0001ZM10.5333 16.8966C10.3624 16.8266 10.207 16.7233 10.0764 16.5927L12.9048 13.7643C12.6599 13.5193 12.3686 13.3256 12.048 13.1944L10.5333 16.8966ZM10.0764 16.5927C9.9458 16.4621 9.84249 16.3067 9.77254 16.1358L13.4747 14.6211C13.3435 14.3005 13.1498 14.0092 12.9048 13.7643L10.0764 16.5927ZM9.77254 16.1358C9.70259 15.9648 9.66739 15.7816 9.669 15.5969L13.6688 15.6316C13.6719 15.2852 13.6059 14.9417 13.4747 14.6211L9.77254 16.1358ZM9.669 15.5969C9.6706 15.4122 9.70898 15.2296 9.78189 15.0599L13.4571 16.6386C13.5939 16.3204 13.6658 15.978 13.6688 15.6316L9.669 15.5969ZM9.78189 15.0599C9.8548 14.8901 9.96079 14.7366 10.0937 14.6083L12.8725 17.4855C13.1217 17.2448 13.3204 16.9569 13.4571 16.6386L9.78189 15.0599ZM10.0689 14.6327L7.05521 17.6463L9.88364 20.4747L12.8973 17.4611L10.0689 14.6327ZM7.05521 20.4747L10.0689 23.4884L12.8973 20.66L9.88364 17.6463L7.05521 20.4747ZM10.0445 23.4636C9.79109 23.2012 9.65087 22.8498 9.65404 22.4851L13.6539 22.5198C13.6598 21.8358 13.3969 21.1768 12.9217 20.6848L10.0445 23.4636ZM9.65404 22.4851C9.65721 22.1203 9.80351 21.7714 10.0615 21.5134L12.8899 24.3419C13.3736 23.8582 13.6479 23.2038 13.6539 22.5198L9.65404 22.4851ZM10.0615 21.5134C10.3194 21.2555 10.6683 21.1092 11.0331 21.106L11.0678 25.1059C11.7519 25.0999 12.4062 24.8255 12.8899 24.3419L10.0615 21.5134ZM11.0331 21.106C11.3978 21.1028 11.7493 21.2431 12.0116 21.4965L9.23279 24.3736C9.72482 24.8488 10.3838 25.1118 11.0678 25.1059L11.0331 21.106ZM12.0364 21.5208L8.59234 18.0768L5.76391 20.9052L9.208 24.3493L12.0364 21.5208Z" fill="#505659" mask="url(#path-3-inside-2_801_84)"/>
<path d="M7.5 10.25H8.5V9.25V1H15.5H30V36H1V18.5V10.25H7.5ZM6.5 8.25H2.09822L6.5 2.82113V8.25Z" stroke="#505659" stroke-width="2"/>
<line x1="18.5658" y1="11.1997" x2="12.5658" y2="28.1997" stroke="#505659" stroke-width="1.2"/>
</svg>
