<svg width="39" height="39" viewBox="0 0 39 39" fill="none" xmlns="http://www.w3.org/2000/svg">
<mask id="path-1-inside-1_801_139" fill="white">
<path fill-rule="evenodd" clip-rule="evenodd" d="M37.6714 16.0105C36.0396 7.46157 28.5244 1 19.5 1C9.28273 1 1 9.28273 1 19.5C1 28.5244 7.46157 36.0396 16.0105 37.6714C16.0214 38.0161 16.0405 38.3586 16.0677 38.6989C6.935 37.0772 0 29.0985 0 19.5C0 8.73045 8.73045 0 19.5 0C29.0985 0 37.0772 6.935 38.6989 16.0677C38.3586 16.0405 38.0161 16.0214 37.6714 16.0105ZM16.0029 36.6505C8.01359 35.0302 2 27.9674 2 19.5C2 9.83502 9.83502 2 19.5 2C27.9674 2 35.0302 8.01359 36.6505 16.0029C36.3108 16.0084 35.973 16.022 35.6374 16.0435C34.0487 8.59022 27.4272 3 19.5 3C10.3873 3 3 10.3873 3 19.5C3 27.4272 8.59022 34.0487 16.0435 35.6374C16.022 35.973 16.0084 36.3108 16.0029 36.6505Z"/>
</mask>
<path fill-rule="evenodd" clip-rule="evenodd" d="M37.6714 16.0105C36.0396 7.46157 28.5244 1 19.5 1C9.28273 1 1 9.28273 1 19.5C1 28.5244 7.46157 36.0396 16.0105 37.6714C16.0214 38.0161 16.0405 38.3586 16.0677 38.6989C6.935 37.0772 0 29.0985 0 19.5C0 8.73045 8.73045 0 19.5 0C29.0985 0 37.0772 6.935 38.6989 16.0677C38.3586 16.0405 38.0161 16.0214 37.6714 16.0105ZM16.0029 36.6505C8.01359 35.0302 2 27.9674 2 19.5C2 9.83502 9.83502 2 19.5 2C27.9674 2 35.0302 8.01359 36.6505 16.0029C36.3108 16.0084 35.973 16.022 35.6374 16.0435C34.0487 8.59022 27.4272 3 19.5 3C10.3873 3 3 10.3873 3 19.5C3 27.4272 8.59022 34.0487 16.0435 35.6374C16.022 35.973 16.0084 36.3108 16.0029 36.6505Z" fill="#D9D9D9"/>
<path d="M37.6714 16.0105L36.6891 16.198L36.8393 16.9849L37.64 17.01L37.6714 16.0105ZM16.0105 37.6714L17.01 37.64L16.9849 36.8393L16.198 36.6891L16.0105 37.6714ZM16.0677 38.6989L15.8929 39.6835L17.1679 39.9099L17.0645 38.6191L16.0677 38.6989ZM38.6989 16.0677L38.6191 17.0645L39.9099 17.1679L39.6835 15.8929L38.6989 16.0677ZM16.0029 36.6505L15.8041 37.6306L16.9831 37.8697L17.0027 36.6668L16.0029 36.6505ZM36.6505 16.0029L36.6668 17.0027L37.8697 16.9831L37.6306 15.8041L36.6505 16.0029ZM35.6374 16.0435L34.6594 16.252L34.8394 17.0967L35.7013 17.0415L35.6374 16.0435ZM16.0435 35.6374L17.0415 35.7013L17.0967 34.8394L16.252 34.6594L16.0435 35.6374ZM19.5 2C28.0355 2 35.1456 8.11172 36.6891 16.198L38.6537 15.823C36.9335 6.81143 29.0133 0 19.5 0V2ZM2 19.5C2 9.83502 9.83502 2 19.5 2V0C8.73045 0 0 8.73045 0 19.5H2ZM16.198 36.6891C8.11172 35.1456 2 28.0355 2 19.5H0C0 29.0133 6.81143 36.9335 15.823 38.6537L16.198 36.6891ZM17.0645 38.6191C17.0386 38.2949 17.0204 37.9685 17.01 37.64L15.011 37.7028C15.0224 38.0636 15.0424 38.4223 15.0709 38.7787L17.0645 38.6191ZM16.2426 37.7143C7.57885 36.1759 1 28.6052 1 19.5H-1C-1 29.5918 6.29114 37.9785 15.8929 39.6835L16.2426 37.7143ZM1 19.5C1 9.28273 9.28273 1 19.5 1V-1C8.17816 -1 -1 8.17816 -1 19.5H1ZM19.5 1C28.6052 1 36.1759 7.57885 37.7143 16.2426L39.6835 15.8929C37.9785 6.29114 29.5918 -1 19.5 -1V1ZM37.64 17.01C37.9685 17.0204 38.2949 17.0386 38.6191 17.0645L38.7787 15.0709C38.4223 15.0424 38.0636 15.0224 37.7028 15.011L37.64 17.01ZM16.2016 35.6705C8.66931 34.1428 3 27.4824 3 19.5H1C1 28.4524 7.35787 35.9175 15.8041 37.6306L16.2016 35.6705ZM3 19.5C3 10.3873 10.3873 3 19.5 3V1C9.28273 1 1 9.28273 1 19.5H3ZM19.5 3C27.4824 3 34.1428 8.66931 35.6705 16.2016L37.6306 15.8041C35.9175 7.35787 28.4524 1 19.5 1V3ZM35.7013 17.0415C36.0211 17.021 36.343 17.008 36.6668 17.0027L36.6342 15.003C36.2786 15.0088 35.9249 15.023 35.5735 15.0455L35.7013 17.0415ZM19.5 4C26.9455 4 33.167 9.25071 34.6594 16.252L36.6154 15.835C34.9304 7.92972 27.9088 2 19.5 2V4ZM4 19.5C4 10.9396 10.9396 4 19.5 4V2C9.83502 2 2 9.83502 2 19.5H4ZM16.252 34.6594C9.25071 33.167 4 26.9455 4 19.5H2C2 27.9088 7.92972 34.9304 15.835 36.6154L16.252 34.6594ZM17.0027 36.6668C17.008 36.343 17.021 36.0211 17.0415 35.7013L15.0455 35.5735C15.023 35.9249 15.0088 36.2786 15.003 36.6342L17.0027 36.6668Z" fill="#505659" mask="url(#path-1-inside-1_801_139)"/>
<path d="M16 38L38 15" stroke="#505659"/>
<path d="M16.2855 37.9997C16.2855 37.9997 11.8439 12.4664 38 15.5" stroke="#505659"/>
</svg>
