<svg width="36" height="35" viewBox="0 0 36 35" fill="none" xmlns="http://www.w3.org/2000/svg">
<path d="M35.37 8.945H33.525C33.435 7.655 33.225 6.575 32.895 5.705C32.565 4.835 32.085 4.16 31.455 3.68C30.855 3.17 30.09 2.81 29.16 2.6C28.23 2.39 27.12 2.285 25.83 2.285C24.72 2.285 23.82 2.315 23.13 2.375C22.47 2.405 21.96 2.48 21.6 2.6C21.24 2.72 21 2.87 20.88 3.05C20.79 3.2 20.745 3.41 20.745 3.68V27.755C20.745 28.715 20.805 29.54 20.925 30.23C21.075 30.92 21.345 31.49 21.735 31.94C22.155 32.36 22.74 32.69 23.49 32.93C24.27 33.14 25.29 33.26 26.55 33.29V35H9.54V33.29C10.8 33.26 11.82 33.14 12.6 32.93C13.38 32.69 13.965 32.36 14.355 31.94C14.775 31.49 15.045 30.92 15.165 30.23C15.315 29.54 15.39 28.715 15.39 27.755V3.68C15.39 3.41 15.33 3.2 15.21 3.05C15.12 2.87 14.91 2.72 14.58 2.6C14.28 2.48 13.845 2.405 13.275 2.375C12.705 2.315 11.94 2.285 10.98 2.285C9.81 2.285 8.715 2.33 7.695 2.42C6.705 2.51 5.835 2.78 5.085 3.23C4.365 3.65 3.78 4.31 3.33 5.21C2.88 6.11 2.64 7.355 2.61 8.945H0.945V0.349998H34.92L35.37 8.945Z" fill="#505659"/>
</svg>
