<svg width="40" height="40" viewBox="0 0 40 40" fill="none" xmlns="http://www.w3.org/2000/svg">
<line y1="37.4289" x2="39.0077" y2="37.4289" stroke="#505659" stroke-width="3.46735"/>
<line y1="29.8088" x2="39.0077" y2="29.8088" stroke="#505659" stroke-width="3.46735"/>
<line x1="22.6309" y1="14.6433" x2="39.0079" y2="14.6433" stroke="#505659" stroke-width="3.46735"/>
<line x1="22.6401" y1="6.09887" x2="39.0173" y2="6.18648" stroke="#505659" stroke-width="3.46735"/>
<line x1="22.6058" y1="23.1879" x2="38.9829" y2="22.9508" stroke="#505659" stroke-width="3.46735"/>
<path d="M19.5863 8.98267H18.5937C18.5453 8.28867 18.4323 7.70764 18.2548 7.23959C18.0773 6.77153 17.819 6.40839 17.4801 6.15016C17.1573 5.87578 16.7457 5.6821 16.2454 5.56913C15.7451 5.45615 15.1479 5.39966 14.4539 5.39966C13.8567 5.39966 13.3725 5.4158 13.0013 5.44808C12.6463 5.46422 12.3719 5.50457 12.1782 5.56913C11.9845 5.63369 11.8554 5.71438 11.7908 5.81122C11.7424 5.89192 11.7182 6.0049 11.7182 6.15016V19.1023C11.7182 19.6187 11.7505 20.0626 11.8151 20.4338C11.8958 20.805 12.041 21.1117 12.2508 21.3538C12.4768 21.5797 12.7915 21.7572 13.195 21.8864C13.6146 21.9993 14.1634 22.0639 14.8412 22.08V23H5.69004V22.08C6.36791 22.0639 6.91666 21.9993 7.33629 21.8864C7.75592 21.7572 8.07065 21.5797 8.28046 21.3538C8.50642 21.1117 8.65168 20.805 8.71623 20.4338C8.79693 20.0626 8.83728 19.6187 8.83728 19.1023V6.15016C8.83728 6.0049 8.805 5.89192 8.74044 5.81122C8.69202 5.71438 8.57905 5.63369 8.40151 5.56913C8.24011 5.50457 8.00609 5.46422 7.69943 5.44808C7.39278 5.4158 6.98122 5.39966 6.46475 5.39966C5.8353 5.39966 5.2462 5.42387 4.69745 5.47229C4.16484 5.52071 3.69679 5.66597 3.2933 5.90806C2.90594 6.13402 2.59122 6.48909 2.34912 6.97328C2.10703 7.45747 1.97791 8.12727 1.96177 8.98267H1.06602V4.35865H19.3442L19.5863 8.98267Z" fill="#505659"/>
</svg>
